<?xml version="1.0" encoding="utf-8"?>
<!-- Generator: Adobe Illustrator 13.0.0, SVG Export Plug-In . SVG Version: 6.00 Build 14948)  -->
<!DOCTYPE svg PUBLIC "-//W3C//DTD SVG 1.1//EN" "http://www.w3.org/Graphics/SVG/1.1/DTD/svg11.dtd">
<svg version="1.1" id="Layer_1" xmlns="http://www.w3.org/2000/svg" xmlns:xlink="http://www.w3.org/1999/xlink" x="0px" y="0px"
	 width="597px" height="183px" viewBox="0 0 350 100" enable-background="new 0 0 350 100" xml:space="preserve">
<path fill="#FFFFFF" d="M270.564,36.92L270.564,36.92c-1.635,0.296-1.654,0.294-1.769,1.596c-0.405,4.655-1.341,9.197-2.825,13.626
	c-0.21,0.625-0.423,1.246-0.669,1.969c0.495,0.129,0.849,0.24,1.209,0.311c1.671,0.325,1.699,0.325,2.019-1.296
	c0.434-2.196,0.941-4.39,1.207-6.607C270.111,43.386,270.289,40.233,270.564,36.92 M244.574,47.105L244.574,47.105
	c1.867-1.751,2.066-2.735,1.003-4.577c-3.179-5.495-6.363-10.983-9.556-16.47c-0.147-0.258-0.369-0.476-0.746-0.947
	c-0.476,2.445-0.949,4.583-1.271,6.744c-0.092,0.627,0.076,1.454,0.442,1.962c1.729,2.402,3.568,4.724,5.367,7.075
	C241.383,42.937,242.945,44.981,244.574,47.105z M262.271,29.238c-0.631,1.033-1.269,2.058-1.887,3.097
	c-4.402,7.388-8.797,14.78-13.205,22.164c-0.908,1.524-0.951,1.526-2.072,0.178c-3.896-4.691-7.778-9.396-11.674-14.091
	c-0.336-0.406-0.711-0.776-1.211-1.319c-0.785,2.838-1.455,5.448-2.227,8.029c-2.057,6.89-5.169,13.165-10.697,17.993
	c-0.895,0.775-1.854,1.477-2.781,2.216c-0.518,0.414-0.865,0.318-1.209-0.269c-0.992-1.697-0.992-1.815,0.488-3.146
	c4.535-4.071,7.321-9.276,8.871-15.016c1.881-6.985,3.286-14.099,4.811-21.175c1.347-6.252,2.565-12.532,3.853-18.797
	c0.067-0.34,0.243-0.659,0.37-0.987c0.117-0.017,0.236-0.033,0.355-0.05c5.305,9.896,10.608,19.795,16.063,29.972
	c0.449-0.804,0.785-1.354,1.07-1.927c4.334-8.773,8.676-17.543,12.978-26.332c0.435-0.881,0.937-1.29,1.947-1.21
	c1.521,0.119,3.047,0.144,4.571,0.15c0.922,0.005,1.346,0.328,1.438,1.313c0.501,5.315,1.072,10.621,1.605,15.932
	c0.651,6.533,1.291,13.065,1.934,19.598c0.49,4.977,0.951,9.952,1.479,14.92c0.108,1.026-0.144,1.439-1.222,1.541
	c-4.344,0.412-8.685,0.869-13.017,1.404c-1.161,0.146-1.49-0.138-1.444-1.297c0.267-6.646,0.469-13.296,0.699-19.943
	c0.146-4.274,0.302-8.546,0.454-12.818C262.5,29.326,262.386,29.282,262.271,29.238z"/>
<path fill="#FFFFFF" d="M66.045,29.558L66.045,29.558c-2.331-0.136-2.331-0.136-2.206,2.218c0.022,0.382,0.057,0.764,0.042,1.142
	c-0.035,0.861,0.295,1.259,1.207,1.119c0.879-0.136,1.766-0.202,2.649-0.3c3.66-0.412,7.318-0.849,10.979-1.226
	c0.957-0.098,1.373-0.55,0.995-1.388c-0.167-0.372-0.798-0.718-1.242-0.751C74.329,30.059,70.187,29.819,66.045,29.558
	 M53.556,42.885c0.5-11.048,1.019-22.094,1.474-33.143c0.053-1.25,0.464-1.719,1.704-1.75c1.437-0.039,2.871-0.231,4.3-0.426
	c1.064-0.146,1.404,0.272,1.462,1.31c0.301,5.331,0.695,10.654,0.979,15.984c0.062,1.154,0.46,1.499,1.594,1.53
	c4.319,0.124,8.639,0.315,12.954,0.564c1.154,0.066,1.468-0.301,1.428-1.413c-0.184-5.336-0.302-10.674-0.444-16.01
	c-0.042-1.625-0.011-1.667,1.586-1.647c1.82,0.024,3.642,0.098,5.465,0.097c0.961-0.001,1.369,0.299,1.266,1.348
	c-0.712,7.252-1.494,14.499-2.008,21.766c-0.206,2.927,0.07,5.911,0.363,8.847c0.664,6.615,1.466,13.216,2.236,19.824
	c0.119,1.022-0.208,1.452-1.281,1.502c-2.793,0.121-5.583,0.307-8.37,0.529c-1.038,0.083-1.426-0.26-1.494-1.306
	c-0.458-7.019-0.969-14.031-1.447-21.047c-0.127-1.833-0.108-1.813-1.935-1.639c-2.615,0.25-5.231,0.52-7.851,0.667
	c-1.136,0.063-1.406,0.496-1.36,1.564c0.302,7.111,0.561,14.226,0.81,21.34C65.079,64,65,63.672,62.856,63.33
	c-2.887-0.465-5.77-0.951-8.667-1.338c-1.111-0.146-1.496-0.568-1.435-1.711C53.063,54.482,53.297,48.683,53.556,42.885z"/>
<path fill="#FFFFFF" d="M183.366,47.342L183.366,47.342c0.006-1.385-0.736-2.163-2.067-2.162c-1.468,0-2.229,0.741-2.216,2.158
	c0.014,1.348,0.794,2.113,2.142,2.106C182.612,49.436,183.358,48.701,183.366,47.342 M166.71,28.095L166.71,28.095
	c0.014-1.372-0.725-2.146-2.074-2.177c-1.355-0.031-2.173,0.729-2.206,2.053c-0.038,1.408,0.758,2.233,2.154,2.239
	C165.938,30.215,166.697,29.461,166.71,28.095z M172.715,40.459L172.715,40.459c1.55-0.018,2.763-1.216,2.763-2.733
	c0-1.515-1.333-2.872-2.821-2.867c-1.513,0.004-2.838,1.346-2.83,2.859C169.836,39.287,171.093,40.479,172.715,40.459z
	 M191.557,65.247c-11.436-11.617-22.697-23.057-34.238-34.78c-0.101,0.812-0.179,1.237-0.2,1.665
	c-0.399,8.675-0.787,17.352-1.18,26.027c-0.101,2.216-0.112,2.214-2.315,2.229c-3.095,0.024-6.188,0.059-9.28,0.069
	c-1.343,0.008-1.431-0.122-0.973-1.379c0.944-2.587,1.925-5.16,2.84-7.756c0.325-0.92,0.822-1.367,1.854-1.338
	c1.138,0.033,2.284-0.18,3.423-0.161c1.049,0.016,1.363-0.422,1.417-1.427c0.312-5.795,0.681-11.588,1.034-17.382
	c0.479-7.906,0.958-15.814,1.446-23.722c0.023-0.4,0.087-0.796,0.133-1.194c0.123-0.05,0.246-0.101,0.368-0.15
	c9.898,12.19,19.796,24.381,29.839,36.751c0.134-0.464,0.223-0.653,0.236-0.848c0.548-7.263,1.155-14.523,1.597-21.792
	c0.241-3.915-0.14-7.814-1.588-11.504c-0.662-1.682-1.606-3.252-2.453-4.856c-0.275-0.517-0.828-1.002-0.018-1.48
	c0.678-0.399,1.298-1.179,2.166-0.144c2.688,3.201,4.512,6.849,5.739,10.813c2.122,6.867,2.345,13.914,1.986,21.017
	c-0.434,8.59-0.854,17.179-1.284,25.768c-0.072,1.48-0.156,2.962-0.256,4.443C191.833,64.389,191.715,64.657,191.557,65.247z"/>
<path fill="#FFFFFF" d="M101.259,57.389L101.259,57.389c0.099-0.179,0.193-0.281,0.212-0.398c0.938-5.277,2.523-10.348,4.891-15.165
	c0.406-0.824-0.096-1.214-0.801-1.651c-0.331,0.531-0.681,0.963-0.89,1.456c-1.815,4.274-3.667,8.534-5.373,12.853
	c-0.832,2.109-0.668,2.229,1.511,2.904C100.924,57.419,101.056,57.389,101.259,57.389 M129.987,44.499L129.987,44.499
	c-0.478-1.466-0.917-2.608-1.215-3.786c-0.285-1.127-0.779-1.493-1.98-1.179c-4.67,1.217-9.364,2.336-14.047,3.505
	c-1.542,0.385-1.879,0.841-1.985,2.692C117.093,45.326,123.408,44.92,129.987,44.499z M121.215,14.767L121.215,14.767
	c-0.114-0.01-0.228-0.02-0.339-0.028c-2.563,7.699-5.128,15.396-7.745,23.261c0.539-0.041,0.749-0.028,0.946-0.074
	c3.962-0.9,7.918-1.824,11.883-2.7c0.858-0.19,0.819-0.638,0.632-1.295c-0.948-3.337-1.871-6.682-2.806-10.022
	C122.932,20.86,122.074,17.814,121.215,14.767z M103.717,65.139c-0.427-0.215-0.745-0.328-1.012-0.514
	c-3.384-2.328-6.744-4.691-10.155-6.98c-0.905-0.611-0.979-1.164-0.519-2.101c5.357-10.912,10.685-21.837,16.015-32.763
	c2.23-4.567,4.421-9.153,6.709-13.689c0.265-0.522,1.014-1.033,1.601-1.116c2.18-0.308,4.385-0.398,6.573-0.646
	c0.953-0.106,1.372,0.269,1.649,1.132c4.428,13.658,8.876,27.311,13.32,40.965c1.06,3.261,2.085,6.534,3.191,9.779
	c0.313,0.93,0.079,1.323-0.841,1.505c-1.119,0.223-2.234,0.494-3.337,0.79c-0.859,0.233-1.298,0.005-1.578-0.897
	c-0.941-3.03-2.011-6.024-2.952-9.06c-0.299-0.958-0.758-1.369-1.785-1.378c-6.694-0.054-13.388-0.151-20.081-0.261
	c-0.806-0.013-1.207,0.284-1.481,1.046c-1.489,4.145-3.021,8.273-4.551,12.404C104.269,63.934,103.997,64.489,103.717,65.139z"/>
<path fill="#FFFFFF" d="M295.102,40.261L295.102,40.261c-0.139,0.083-0.285,0.122-0.34,0.215c-2.879,4.774-4.964,9.888-6.427,15.252
	c-0.083,0.304,0.22,0.888,0.513,1.078c0.506,0.334,1.144,0.467,1.789,0.704c0.146-0.385,0.301-0.646,0.344-0.919
	c0.805-5.052,2.428-9.841,4.631-14.438C296.016,41.307,295.91,40.729,295.102,40.261 M300.023,45.742L300.023,45.742
	c6.479-0.42,12.812-0.833,19.358-1.257c-0.539-1.616-1.019-2.921-1.401-4.253c-0.229-0.799-0.655-0.972-1.406-0.782
	c-4.763,1.191-9.516,2.417-14.299,3.512C300.814,43.297,300.25,44.131,300.023,45.742z M310.639,14.875L310.639,14.875
	c-0.138-0.004-0.275-0.012-0.416-0.019c-2.552,7.658-5.104,15.315-7.767,23.316c4.79-1.102,9.216-2.119,13.809-3.174
	C314.357,28.174,312.498,21.524,310.639,14.875z M312.34,7.352c0.922-0.252,1.329,0.245,1.607,1.098
	c3.357,10.354,6.734,20.701,10.112,31.05c2.074,6.361,4.146,12.725,6.229,19.084c0.59,1.802,0.603,1.797-1.248,2.268
	c-3.875,0.983-3.888,0.987-5.161-2.793c-0.757-2.246-1.501-4.498-2.196-6.767c-0.238-0.774-0.669-1.097-1.462-1.108
	c-6.819-0.079-13.642-0.163-20.462-0.28c-0.892-0.015-1.137,0.505-1.387,1.184c-1.535,4.219-3.088,8.43-4.64,12.645
	c-0.578,1.569-0.621,1.582-1.967,0.652c-3.281-2.261-6.539-4.548-9.854-6.754c-0.914-0.607-0.967-1.113-0.5-2.064
	c7.439-15.174,14.859-30.356,22.219-45.572c0.713-1.476,1.525-2.227,3.229-2.211C308.671,7.798,310.487,7.511,312.34,7.352z"/>
<path fill="#FFFFFF" d="M25.075,48.738L25.075,48.738c-0.004,1.359,0.762,2.138,2.111,2.14c1.419,0.001,2.151-0.691,2.178-2.06
	c0.028-1.438-0.734-2.221-2.158-2.213C25.864,46.611,25.08,47.395,25.075,48.738 M29.539,29.407L29.539,29.407
	c0-1.358-0.769-2.143-2.098-2.145c-1.428-0.003-2.192,0.757-2.194,2.183c-0.002,1.423,0.755,2.146,2.229,2.124
	C28.845,31.548,29.539,30.819,29.539,29.407z M30.091,38.886L30.091,38.886c0.022-1.505-1.189-2.77-2.687-2.802
	c-1.557-0.035-2.885,1.234-2.883,2.755c0.002,1.48,1.24,2.774,2.708,2.824C28.744,41.719,30.067,40.434,30.091,38.886z
	 M19.953,15.928c-2.644-0.519-5.379-0.768-7.912-1.617c-4.219-1.414-5.502-4.896-5.557-8.922c-0.013-1.075,0.865-1.193,1.58-1.273
	c0.243-0.027,0.74,0.568,0.814,0.94c0.616,3.059,2.653,4.605,5.504,5.307c3.143,0.775,6.326,0.515,9.482,0.159
	c4.503-0.511,8.982-1.21,13.484-1.732c3.705-0.428,7.427-0.718,11.128,0.114c2.182,0.49,2.184,0.493,1.838,2.709
	c-0.456,2.927-0.462,2.98-3.435,2.651c-4.672-0.519-9.294-0.316-13.904,0.61c-1.06,0.214-1.393,0.61-1.319,1.671
	c0.502,7.311,0.955,14.625,1.423,21.937c0.465,7.271,0.938,14.542,1.385,21.811c0.094,1.573-0.002,1.604-1.518,1.407
	c-3.779-0.494-7.559-0.998-11.346-1.433c-1.118-0.129-1.505-0.531-1.409-1.701c0.962-11.647,1.873-23.303,2.799-34.955
	c0.182-2.281,0.339-4.563,0.559-6.839c0.085-0.897-0.228-1.245-1.123-1.187c-0.802,0.051-1.61,0.01-2.414,0.01
	C19.994,15.708,19.972,15.816,19.953,15.928z"/>
<path fill="#FFFFFF" d="M214.052,17.348L214.052,17.348c-0.173,0.152-0.252,0.197-0.296,0.265c-2.93,4.714-4.895,9.849-6.496,15.132
	c-0.451,1.493,0.977,1.352,1.688,1.684c0.929,0.433,0.879-0.504,0.984-1.011c1.043-4.953,2.543-9.751,4.791-14.296
	C215.154,18.243,214.775,17.794,214.052,17.348 M203.516,46.972c0.211-10.738,1.241-21.394,2.771-32.007
	c0.225-1.55,0.523-3.09,0.71-4.644c0.104-0.884,0.474-1.15,1.34-0.999c3.588,0.627,7.179,1.23,10.772,1.808
	c1.076,0.173,0.968,0.791,0.771,1.573c-1.299,5.129-2.593,10.26-3.854,15.398c-2.476,10.071-3.799,20.296-4.08,30.657
	c-0.055,2.069-0.053,2.066-2.184,2.305c-1.39,0.153-2.781,0.283-4.162,0.487c-1.026,0.152-1.467-0.187-1.507-1.256
	C203.928,55.854,203.714,51.413,203.516,46.972z"/>
<g>
	<path fill="#ffffff" d="M21.03,78.195v7.541h0.522c0.804,0,1.461-0.12,1.97-0.364c0.509-0.243,0.94-0.654,1.293-1.231
		c0.353-0.578,0.583-1.358,0.69-2.343h0.469v9.222h-0.469c-0.17-1.742-0.632-2.892-1.387-3.446c-0.755-0.556-1.61-0.832-2.566-0.832
		H21.03v5.618c0,0.938,0.051,1.525,0.154,1.761c0.103,0.233,0.304,0.438,0.603,0.616C22.086,94.912,22.491,95,22.999,95h0.603v0.5
		h-9.499v-0.501h0.603c0.527,0,0.951-0.095,1.273-0.284c0.232-0.127,0.411-0.343,0.536-0.648c0.098-0.219,0.147-0.785,0.147-1.707
		V80.281c0-0.938-0.049-1.525-0.147-1.76c-0.099-0.235-0.297-0.44-0.597-0.617c-0.299-0.176-0.704-0.264-1.212-0.264h-0.603v-0.5
		h15.328v5.268h-0.549c-0.125-1.236-0.445-2.153-0.958-2.749c-0.514-0.595-1.258-1.017-2.231-1.259
		c-0.536-0.137-1.527-0.203-2.975-0.203H21.03V78.195z"/>
</g>
<g>
	<path fill="#ffffff" d="M63.209,90.273h-6.418l-0.764,1.787c-0.25,0.597-0.375,1.088-0.375,1.477c0,0.514,0.206,0.893,0.617,1.137
		c0.241,0.146,0.835,0.253,1.782,0.325V95.5h-6.043v-0.501c0.652-0.101,1.188-0.372,1.607-0.819c0.42-0.447,0.938-1.369,1.554-2.769
		l6.499-14.65h0.254l6.553,15.058c0.625,1.426,1.139,2.324,1.541,2.693c0.304,0.279,0.732,0.442,1.287,0.487V95.5h-8.79v-0.501
		h0.362c0.706,0,1.201-0.101,1.487-0.298c0.196-0.145,0.295-0.352,0.295-0.623c0-0.162-0.027-0.329-0.081-0.501
		c-0.018-0.081-0.152-0.42-0.402-1.017L63.209,90.273z M62.753,89.271l-2.707-6.323l-2.787,6.323H62.753z"/>
</g>
<g>
	<path fill="#ffffff" d="M102.479,87.133v5.145c0,0.994,0.061,1.619,0.181,1.875c0.121,0.259,0.333,0.464,0.637,0.617
		c0.304,0.153,0.871,0.229,1.702,0.229V95.5H95.7v-0.501c0.84,0,1.409-0.079,1.708-0.237c0.299-0.158,0.509-0.363,0.63-0.615
		c0.12-0.252,0.181-0.875,0.181-1.869V80.361c0-0.992-0.061-1.616-0.181-1.875c-0.121-0.258-0.333-0.463-0.637-0.615
		c-0.304-0.153-0.871-0.229-1.702-0.229v-0.502h8.441c2.197,0,3.805,0.153,4.823,0.461c1.019,0.307,1.849,0.873,2.493,1.698
		c0.643,0.826,0.965,1.794,0.965,2.904c0,1.354-0.483,2.473-1.447,3.358c-0.617,0.559-1.479,0.979-2.586,1.258l4.368,6.216
		c0.571,0.803,0.979,1.305,1.219,1.502c0.366,0.28,0.791,0.435,1.273,0.461V95.5h-5.721l-5.855-8.367H102.479z M102.479,78.129
		v8.042h0.764c1.241,0,2.17-0.114,2.787-0.345c0.616-0.23,1.101-0.646,1.454-1.246s0.529-1.383,0.529-2.35
		c0-1.398-0.324-2.433-0.971-3.101c-0.648-0.669-1.691-1.002-3.129-1.002L102.479,78.129L102.479,78.129z"/>
</g>
<g>
	<path fill="#ffffff" d="M151.66,89.244l4.931-12.104h7.396v0.502h-0.589c-0.536,0-0.964,0.094-1.286,0.282
		c-0.224,0.127-0.402,0.339-0.537,0.638c-0.099,0.217-0.147,0.78-0.147,1.691v12.104c0,0.939,0.049,1.526,0.147,1.762
		c0.098,0.234,0.299,0.439,0.602,0.615c0.304,0.177,0.711,0.265,1.22,0.265h0.589V95.5H154.5v-0.501h0.589
		c0.536,0,0.965-0.095,1.287-0.284c0.223-0.127,0.401-0.343,0.535-0.648c0.098-0.219,0.147-0.785,0.147-1.707V78.751L150.092,95.5
		h-0.322l-7.074-16.627v12.93c0,0.903,0.022,1.459,0.067,1.666c0.115,0.452,0.368,0.819,0.757,1.104
		c0.388,0.284,0.999,0.427,1.829,0.427v0.5h-6.217v-0.501h0.188c0.401,0.009,0.777-0.058,1.125-0.196
		c0.349-0.141,0.612-0.326,0.792-0.562c0.177-0.235,0.316-0.564,0.415-0.989c0.018-0.1,0.027-0.559,0.027-1.381V80.254
		c0-0.93-0.05-1.509-0.147-1.738c-0.098-0.23-0.299-0.435-0.603-0.609c-0.304-0.178-0.709-0.264-1.219-0.264h-0.577v-0.502h7.424
		L151.66,89.244z"/>
</g>
<g>
	<path fill="#ffffff" d="M219.105,89.057l-0.684,6.443H202.29v-0.501h0.604c0.525,0,0.951-0.095,1.272-0.284
		c0.231-0.127,0.41-0.343,0.535-0.648c0.099-0.219,0.147-0.785,0.147-1.707V80.281c0-0.938-0.05-1.525-0.147-1.76
		c-0.099-0.235-0.298-0.44-0.597-0.617c-0.299-0.176-0.703-0.264-1.213-0.264h-0.604v-0.5h9.688v0.502h-0.791
		c-0.526,0-0.951,0.094-1.271,0.282c-0.232,0.127-0.416,0.345-0.551,0.65c-0.098,0.217-0.146,0.786-0.146,1.706v11.697
		c0,0.939,0.053,1.537,0.161,1.795c0.106,0.258,0.315,0.449,0.63,0.576c0.223,0.08,0.764,0.121,1.62,0.121h1.515
		c0.965,0,1.77-0.172,2.412-0.516c0.644-0.344,1.199-0.885,1.668-1.625s0.914-1.832,1.334-3.275h0.549V89.057z"/>
</g>
<g>
	<path fill="#ffffff" d="M253.714,94.999V95.5h-9.5v-0.501h0.604c0.525,0,0.951-0.095,1.272-0.284
		c0.231-0.127,0.409-0.343,0.535-0.648c0.099-0.219,0.147-0.785,0.147-1.707V80.281c0-0.938-0.051-1.525-0.147-1.76
		c-0.099-0.235-0.298-0.44-0.597-0.617c-0.299-0.176-0.703-0.264-1.213-0.264h-0.604v-0.5h9.5v0.502h-0.604
		c-0.527,0-0.951,0.094-1.271,0.282c-0.232,0.127-0.416,0.345-0.551,0.65c-0.098,0.217-0.146,0.786-0.146,1.706v12.076
		c0,0.939,0.053,1.526,0.153,1.762c0.103,0.234,0.304,0.439,0.604,0.615c0.299,0.177,0.703,0.265,1.213,0.265H253.714z"/>
</g>
<g>
	<path fill="#ffffff" d="M285.468,78.195v7.541h0.523c0.804,0,1.461-0.12,1.97-0.364c0.51-0.243,0.939-0.654,1.292-1.231
		c0.354-0.578,0.584-1.358,0.69-2.343h0.47v9.222h-0.47c-0.17-1.742-0.631-2.892-1.387-3.446c-0.756-0.556-1.609-0.832-2.565-0.832
		h-0.523v5.618c0,0.938,0.052,1.525,0.155,1.761c0.104,0.233,0.304,0.438,0.604,0.616c0.299,0.176,0.703,0.264,1.211,0.264h0.604
		v0.5h-9.5v-0.501h0.604c0.526,0,0.951-0.095,1.271-0.284c0.232-0.127,0.411-0.343,0.536-0.648c0.098-0.219,0.147-0.785,0.147-1.707
		V80.281c0-0.938-0.051-1.525-0.147-1.76c-0.099-0.235-0.297-0.44-0.597-0.617c-0.299-0.176-0.703-0.264-1.213-0.264h-0.604v-0.5
		h15.329v5.268h-0.55c-0.125-1.236-0.444-2.153-0.959-2.749c-0.514-0.595-1.256-1.017-2.229-1.259
		c-0.536-0.137-1.526-0.203-2.975-0.203h-1.689V78.195z"/>
</g>
<g>
	<path fill="#ffffff" d="M325.743,78.195v7.475h0.36c1.152,0,1.988-0.365,2.507-1.097s0.849-1.81,0.991-3.235h0.51v9.613h-0.51
		c-0.106-1.049-0.333-1.905-0.677-2.573s-0.744-1.117-1.2-1.349c-0.453-0.229-1.115-0.344-1.981-0.344v5.172
		c0,1.012,0.042,1.629,0.127,1.854c0.086,0.228,0.243,0.412,0.476,0.556c0.232,0.146,0.607,0.217,1.127,0.217h1.085
		c1.696,0,3.058-0.396,4.079-1.19c1.022-0.794,1.759-2.004,2.204-3.629h0.496l-0.817,5.836h-15.703V95h0.604
		c0.527,0,0.951-0.096,1.273-0.284c0.231-0.127,0.409-0.343,0.536-0.649c0.098-0.217,0.146-0.784,0.146-1.707V80.281
		c0-0.83-0.021-1.342-0.066-1.53c-0.089-0.315-0.255-0.56-0.495-0.729c-0.341-0.254-0.806-0.379-1.395-0.379h-0.604v-0.502h15.208
		v5.43h-0.51c-0.259-1.327-0.623-2.279-1.092-2.856c-0.47-0.578-1.132-1.002-1.989-1.272c-0.502-0.162-1.438-0.243-2.814-0.243
		h-1.875V78.195z"/>
</g>
</svg>
